<?xml version="1.0" standalone="no"?>
<!DOCTYPE svg PUBLIC "-//W3C//DTD SVG 1.1//EN" "http://www.w3.org/Graphics/SVG/1.1/DTD/svg11.dtd" >
<svg xmlns="http://www.w3.org/2000/svg">
<metadata></metadata>
<defs>
<font id="dimitri_swankregular" horiz-adv-x="1105" >
<font-face units-per-em="2048" ascent="1638" descent="-410" />
<missing-glyph horiz-adv-x="700" />
<glyph horiz-adv-x="0" />
<glyph unicode="&#xd;" horiz-adv-x="700" />
<glyph unicode=" "  horiz-adv-x="700" />
<glyph unicode="&#x09;" horiz-adv-x="700" />
<glyph unicode="&#xa0;" horiz-adv-x="700" />
<glyph unicode="!" horiz-adv-x="548" d="M-55 1327l55 199h582v-1614l-56 -199h-579v1614h-2zM88 465h406v973h-406v-973zM90 0h404v311h-404v-311z" />
<glyph unicode="&#x22;" d="M-55 840v487l55 199h1139v-488l-56 -198h-1138zM88 1126h406v312h-406v-312zM645 1126h406v312h-406v-312z" />
<glyph unicode="#" horiz-adv-x="1368" d="M-55 -37v1364l55 199h1139v-205h262v-954l-55 -199h-207l-56 -205h-1138zM88 250h406v205h151v-205h406v205h262v311h-262v156h262v311h-262v205h-406v-205h-151v205h-406v-1188zM494 766v156h151v-156h-151z" />
<glyph unicode="$" d="M-55 -84l2 805l401 614l47 2v189h582v-189h164l-2 -936l-56 -198l-256 -287h-41l-55 -203h-581v203h-205zM88 203h756l207 231v404h-568v61h570v350h-658l-307 -473v-188h610v-62h-610v-323zM293 0h405v147h-405v-147zM483 1290h406v148h-406v-148z" />
<glyph unicode="%" horiz-adv-x="1339" d="M-55 840v487l55 199h582v-152l55 152h555v-119l-55 -199l-265 -714v-95h500v-487l-55 -199h-1069v713l55 199l80 215h-438zM88 1126h406v312h-406v-312zM391 0h393v559l320 879h-406l-307 -830v-608zM879 0h405v311h-405v-311z" />
<glyph unicode="&#x26;" horiz-adv-x="958" d="M-55 274v488l55 199h150v112l55 199h581v-311h205v-488l-55 -199h-150v-112l-55 -199h-581v311h-205zM88 561h205v-311h405v311h205v311h-205v312h-405v-312h-205v-311z" />
<glyph unicode="'" horiz-adv-x="548" d="M-55 303v1024l55 199h582v-436l-56 -199zM88 717l406 409v312h-406v-721z" />
<glyph unicode="(" horiz-adv-x="700" d="M-53 -287v1198l401 615h385v-527l-55 -198h-96v-402h151l2 -487l-55 -199h-733zM88 0h557v311h-151v776h151v351h-250l-307 -473v-965z" />
<glyph unicode=")" horiz-adv-x="700" d="M-55 -287l2 488l55 198h96v402h-153v526l55 199h387l346 -535v-1079l-55 -199h-733zM88 0h557v965l-305 473h-252v-351h154v-776h-152z" />
<glyph unicode="*" horiz-adv-x="1417" d="M-55 92v488l55 198h381v62h-436v487l55 199h582v-379h231v180l55 199h582v-488l-55 -198h-379v-62h434v-487l-55 -199h-582v369h-231v-170l-56 -199h-581zM88 379h406v311h-406v-311zM88 1126h406v312h-406v-312zM524 748h404v311h-404v-311zM956 379h406v311h-406v-311z M956 1126h406v312h-406v-312z" />
<glyph unicode="+" horiz-adv-x="958" d="M-55 274v488l55 199h150v112l55 199h581v-311h205v-488l-55 -199h-150v-112l-55 -199h-581v311h-205zM88 561h205v-311h405v311h205v311h-205v312h-405v-312h-205v-311z" />
<glyph unicode="," horiz-adv-x="548" d="M-55 201l55 198h582v-436l-56 -199l-581 -587v1024zM88 311v-721l406 410v311h-406z" />
<glyph unicode="-" horiz-adv-x="548" d="M-55 322v487l55 199h582v-488l-56 -198h-581zM88 608h406v312h-406v-312z" />
<glyph unicode="." horiz-adv-x="548" d="M-55 201l55 198h582v-487l-56 -199h-581v488zM88 0h406v311h-406v-311z" />
<glyph unicode="/" horiz-adv-x="700" d="M-53 -287v768l387 1045h555v-119l-55 -199l-265 -714v-582l-55 -199h-567zM88 0h393v559l320 879h-406l-307 -830v-608z" />
<glyph unicode="0" d="M-55 -287l2 1397l411 416h783v-1260l-56 -198l-358 -355h-782zM88 0h657l308 303v1135h-658l-307 -310v-1128zM496 350v737h151v-737h-151z" />
<glyph unicode="1" horiz-adv-x="548" d="M-55 -287v1614l55 199h582v-1614l-56 -199h-581zM88 0h406v1438h-406v-1438z" />
<glyph unicode="2" d="M-55 801v526l55 199h795l346 -535v-471l-56 -108h56v-500l-56 -199h-1138v1035l55 53h-57zM88 1087h571v-229h-569v-858h963v324h-609v284h609v357l-308 473h-657v-351z" />
<glyph unicode="3" d="M-55 801v526l55 199h795l346 -535v-792l-56 -199l-256 -287h-882v500l55 199h299l-2 336l55 53h-409zM88 1087h580v-229h-226l2 -250h224v-284h-578v-324h756l207 231v734l-308 473h-657v-351z" />
<glyph unicode="4" d="M-53 322v589l401 615h793v-1614l-56 -199h-581v609h-557zM88 608h559v-608h406v1438h-658l-307 -473v-357zM494 858l153 295v-295h-153z" />
<glyph unicode="5" d="M-55 240l55 82h-53v1005l55 199h1139v-500l-39 -80h39v-500l-56 -198l-346 -535h-794v527zM88 0h657l308 473v385h-609v256h609v324h-963v-830h569v-258h-571v-350z" />
<glyph unicode="6" d="M-53 -287v1194l401 619h793v-527l-21 -53h19v-747l-56 -199l-256 -287h-880zM88 0h756l207 231v627h-568v229h570v351h-658l-307 -473v-965zM473 324v284h225v-284h-225z" />
<glyph unicode="7" horiz-adv-x="1009" d="M-55 801v526l55 199h1042v-1614l-55 -199h-579v1088h-463zM88 1087h463v-1087h403v1438h-866v-351z" />
<glyph unicode="8" d="M-55 283l28 100h-28l2 524l401 619h793v-590l-29 -100h29l-2 -568l-56 -198l-358 -357h-780v570zM88 0h655l308 305l2 443h-230l230 225v465h-658l-307 -473v-295h229l-229 -226v-444zM494 350v148h151v-148h-151zM496 858v229h151v-229h-151z" />
<glyph unicode="9" d="M-55 240l55 51h-53v889l311 346h883v-1080l-56 -198l-346 -535h-794v527zM88 0h657l308 473v965h-754l-209 -232v-628h569v-228h-571v-350zM444 829v285h224v-285h-224z" />
<glyph unicode=":" horiz-adv-x="548" d="M-55 201l55 121h-55v487l55 199h582v-488l-56 -121h56v-487l-56 -199h-581v488zM88 0h406v311h-406v-311zM88 608h406v312h-406v-312z" />
<glyph unicode=";" horiz-adv-x="548" d="M-55 201l55 121h-55v487l55 199h582v-488l-56 -121h56v-436l-56 -199l-581 -587v1024zM88 311v-721l406 410v311h-406zM88 608h406v312h-406v-312z" />
<glyph unicode="&#x3c;" horiz-adv-x="548" d="M-55 201l55 198h582v-487l-56 -199h-581v488zM-55 461v866l55 199h582v-867l-56 -198h-581zM88 0h406v311h-406v-311zM88 748h406v311h-406v-311zM88 1126h406v312h-406v-312z" />
<glyph unicode="=" horiz-adv-x="548" d="M-55 92v1235l55 199h582v-1235l-56 -199h-581zM88 379h406v311h-406v-311zM88 748h406v311h-406v-311zM88 1126h406v312h-406v-312z" />
<glyph unicode="&#x3e;" horiz-adv-x="548" d="M-55 -287v1235l55 199h582v-1235l-56 -199h-581zM88 0h406v311h-406v-311zM88 369h406v311h-406v-311zM88 748h406v311h-406v-311z" />
<glyph unicode="?" d="M-55 -287v1614l55 199h795l346 -535v-635l-56 -198h-503v-246l-56 -199h-581zM88 0h406v311h-406v-311zM88 444h965v521l-308 473h-657l2 -584h406v233h151v-331h-557z" />
<glyph unicode="@" horiz-adv-x="1593" d="M-55 1327l55 199h1278l348 -535v-829l-55 -199h-783l-204 203v-4l-56 -199h-581zM88 1438l2 -1188h406v837h637v-526h-152v445h-406l-2 -453l308 -303h657v715l-307 473h-1143z" />
<glyph unicode="A" d="M-55 -287l2 1196l401 617h793v-1614l-56 -199h-1140zM88 0h406v608h153v-608h406v1438h-658l-307 -473v-965zM494 858l153 295v-295h-153z" />
<glyph unicode="B" d="M-55 -287v1614l55 199h776l365 -293l-2 -318l-27 -98h27l2 -551l-56 -198l-358 -355h-782zM88 0h657l308 303l-2 426h-224l224 223l2 238l-308 248h-657v-1438zM494 350v258h151v-258h-151zM494 858v229h151v-229h-151z" />
<glyph unicode="C" d="M-55 -287l2 1196l401 617h793v-1260l-56 -198l-358 -355h-782zM88 0h657l308 303l-2 248h-406v-240h-151v776h151v-438h408v789h-658l-307 -473v-965z" />
<glyph unicode="D" d="M-55 -287v1614l55 199h795l346 -535v-725l-56 -198l-358 -355h-782zM88 0h657l308 303v662l-308 473h-657v-1438zM496 350v737h151v-737h-151z" />
<glyph unicode="E" d="M-55 -287v1614l55 199h1139v-527l-56 -198h-286v-281l-56 -82h398v-526l-56 -199h-1138zM88 0h963v350h-557v258h215v250h-215v229h557v351h-963v-1438z" />
<glyph unicode="F" d="M-55 -287v1614l55 199h1139v-527l-56 -198h-286v-281l-56 -198h-159v-410l-56 -199h-581zM88 0h406v608h215v250h-215v229h557v351h-963v-1438z" />
<glyph unicode="G" d="M-55 248v1079l55 199h1139v-1800l-56 -199h-581v186h-209zM88 473l307 -473h250v-186h406l2 1159h-408v-623h-151v776h557v312h-963v-965z" />
<glyph unicode="H" d="M-55 -287v1614l55 199h1139v-1800l-56 -199h-581v186h-557zM88 0h406v608h151v-794h406v1624h-406v-580h-151v580h-406v-1438z" />
<glyph unicode="I" horiz-adv-x="548" d="M-55 -287v1614l55 199h582v-1614l-56 -199h-581zM88 0h406v1438h-406v-1438z" />
<glyph unicode="J" d="M-53 -287v1614l55 199h1139v-1080l-56 -198l-348 -535h-790zM88 973l2 -973h655l308 473v965h-963v-312h557v-776h-151v623h-408z" />
<glyph unicode="K" d="M-55 -287v1614l55 199h1139v-611l-33 -102h33v-901l-56 -199h-1138zM88 0h406v578h151v-578h406v727h-224l224 225v486h-406v-437l-151 -151v588h-406v-1438z" />
<glyph unicode="L" horiz-adv-x="1009" d="M-55 -287v1614l55 199h582v-1088h460v-526l-55 -199h-1042zM88 0h866v350h-460v1088h-406v-1438z" />
<glyph unicode="M" horiz-adv-x="1667" d="M-55 -287v1614l55 199h782l308 -303h610v-1311l-55 -199h-1700zM88 0h408v1087h151v-1087h406v784h151v-784h408v1135h-559l-308 303h-657v-1438z" />
<glyph unicode="N" d="M-55 -287l2 1403l413 410h781v-1614l-56 -199h-1140zM88 0h406v1087h151v-1087h408v1438h-658l-307 -303v-1135z" />
<glyph unicode="O" d="M-55 -287l2 1397l411 416h783v-1260l-56 -198l-358 -355h-782zM88 0h657l308 303v1135h-658l-307 -310v-1128zM496 350v737h151v-737h-151z" />
<glyph unicode="P" d="M-55 -287v1614l55 199h776l365 -293l-2 -610l-56 -199h-501v-512l-56 -199h-581zM88 0h406v711h557l2 479l-308 248h-657v-1438zM494 858v229h151v-229h-151z" />
<glyph unicode="Q" d="M-55 68v1259l55 199h782l359 -363l2 -1437l-56 -199h-585v186h-197zM88 303l307 -303h250v-186h406q2 69 2 1314l-308 310h-657v-1135zM494 350v737h151v-737h-151z" />
<glyph unicode="R" d="M-55 -287v1614l55 199h776l365 -293l-2 -610l-33 -68l33 -33v-796l-56 -199h-581v186h-557zM88 0h406v588l151 -154v-620h406v671l-224 224l224 2l2 479l-308 248h-657v-1438zM494 858v229h151v-229h-151z" />
<glyph unicode="S" d="M-55 213l55 109h-55l2 587l401 617h793v-527l-21 -53h19v-747l-56 -199l-256 -287h-882v500zM88 0h756l207 231v627h-568v229h570v351h-658l-307 -473v-357h610v-284h-610v-324z" />
<glyph unicode="T" d="M-55 801v526l55 199h1139v-527l-56 -198h-215v-1075l-55 -199h-582v1274h-286zM88 1087h287v-1273h405v1273h271v351h-963v-351z" />
<glyph unicode="U" d="M-55 68v1259l55 199h1141v-1614l-56 -199h-780zM88 303l307 -303h658v1438h-408v-1088h-151v1088h-406v-1135z" />
<glyph unicode="V" d="M-55 -287v1614l55 199h1141v-1260l-56 -198l-358 -355h-782zM88 0h657l308 303v1135h-406v-1088h-151v1088h-408v-1438z" />
<glyph unicode="W" horiz-adv-x="1667" d="M-55 -287v1614l55 199h1700v-1311l-55 -199h-611l-307 -303h-782zM88 0h657l308 303h559v1135h-408v-785h-151v785h-406v-1088h-151v1088h-408v-1438z" />
<glyph unicode="X" d="M-55 221l32 101h-32v1005l55 199h1141v-652l-33 -100h33v-862l-56 -199h-1140v508zM88 0h406v436h151v-436h408v686h-230l230 225v527h-406v-580h-151v580h-408v-830h229l-229 -225v-383z" />
<glyph unicode="Y" d="M-55 322v1005l55 199h1141v-652l-56 -198l-249 -246v-518l-56 -199h-581v609h-254zM88 608h254v-608h406v610l305 301v527h-406v-480h-151v480h-408v-830z" />
<glyph unicode="Z" d="M-55 801v526l55 199h795l346 -535v-471l-56 -108h56v-500l-56 -199h-882l-256 287v748l37 53h-39zM88 1087h571v-229h-569v-627l209 -231h754v324h-609v284h609v357l-308 473h-657v-351z" />
<glyph unicode="[" horiz-adv-x="700" d="M-55 -287v1614l55 199h733l2 -527l-57 -198h-96v-402h151l2 -487l-55 -199h-735zM88 0h557v311h-151v776h151v351h-557v-1438z" />
<glyph unicode="\" horiz-adv-x="700" d="M-55 1208v119l55 199h555l334 -901v-713l-55 -199h-570v631zM88 1421l320 -862v-559h393v608l-307 830h-406v-17z" />
<glyph unicode="]" horiz-adv-x="700" d="M-55 -287l2 488l55 198h96v402h-153l2 526l53 199h733v-1614l-55 -199h-733zM88 0h557v1438h-557v-351h154v-776h-152z" />
<glyph unicode="^" horiz-adv-x="548" d="M-55 201l55 198h582v-487l-56 -199h-581v488zM-55 840v487l55 199h582v-488l-56 -198h-581zM88 0h406v311h-406v-311zM88 1126h406v312h-406v-312z" />
<glyph unicode="_" d="M-55 111l55 198h1139v-581l-56 -199h-1138v582zM88 -184h963v405h-963v-405z" />
<glyph unicode="`" horiz-adv-x="548" d="M-55 201l55 121h-55v487l55 199h582v-488l-56 -121h56v-487l-56 -199h-581v488zM88 0h406v311h-406v-311zM88 608h406v312h-406v-312z" />
<glyph unicode="a" d="M-55 -287v1614l55 199h795l346 -535v-1079l-56 -199h-1140zM88 0h406v608h153v-608h406v965l-308 473h-657v-1438zM494 858v295l153 -295h-153z" />
<glyph unicode="b" d="M-55 -287v1614l55 199h776l365 -293l-2 -318l-27 -98h27l2 -551l-56 -198l-358 -355h-782zM88 0h657l308 303l-2 426h-224l224 223l2 238l-308 248h-657v-1438zM494 350v258h151v-258h-151zM494 858v229h151v-229h-151z" />
<glyph unicode="c" d="M-55 -287l2 1194l401 619h793v-1260l-56 -198l-358 -355h-782zM88 0h657l308 303l-2 453h-406v-445h-151v776h151v-233h408v584h-658l-307 -473v-965z" />
<glyph unicode="d" d="M-55 -287v1614l55 199h795l346 -535v-725l-56 -198l-358 -355h-782zM88 0h657l308 303v662l-308 473h-657v-1438zM496 350v737h151v-737h-151z" />
<glyph unicode="e" d="M-55 -287v1614l55 199h1139v-527l-56 -198h-286v-281l-56 -82h398v-526l-56 -199h-1138zM88 0h963v350h-557v258h215v250h-215v229h557v351h-963v-1438z" />
<glyph unicode="f" d="M-55 -287v1614l55 199h1139v-527l-56 -198h-286v-281l-56 -198h-159v-410l-56 -199h-581zM88 0h406v608h215v250h-215v229h557v351h-963v-1438z" />
<glyph unicode="g" d="M-55 248v1079l55 199h1139v-1800l-56 -199h-581v186h-209zM88 473l307 -473h250v-186h406l2 1159h-408v-623h-151v776h557v312h-963v-965z" />
<glyph unicode="h" d="M-55 -473v1800l55 199h1139v-1614l-56 -199h-501l-56 -186h-581zM88 -186h406v794h151v-608h406v1438h-406v-580h-151v580h-406v-1624z" />
<glyph unicode="i" horiz-adv-x="548" d="M-55 -287v1614l55 199h582v-1614l-56 -199h-581zM88 0h406v973h-406v-973zM88 1126h406v312h-406v-312z" />
<glyph unicode="j" d="M-55 862l55 199h504v266l55 199h580l2 -1080l-56 -198l-348 -535h-790zM88 973l2 -973h655l308 473v614h-406v-737h-151v623h-408zM647 1241h404v197h-404v-197z" />
<glyph unicode="k" d="M-55 -287v1614l55 199h582v-187h557v-424l-31 -100h31v-1089l-56 -199h-581v186h-557zM88 0h406v578h151v-764h406v913h-224l224 225v299h-406v-250l-151 -151v588h-406v-1438z" />
<glyph unicode="l" horiz-adv-x="1009" d="M-55 -287v1614l55 199h582v-1088h460v-526l-55 -199h-1042zM88 0h866v350h-460v1088h-406v-1438z" />
<glyph unicode="m" horiz-adv-x="1667" d="M-55 -287v1311l55 199h612l308 303h780v-1614l-55 -199h-1700zM88 0h408v784h151v-784h406v1087h151v-1087h408v1438h-658l-307 -303h-559v-1135z" />
<glyph unicode="n" d="M-55 -287v1614l55 199h782l359 -355v-1259l-56 -199h-1140zM88 0h408v1087h151v-1087h406v1135l-308 303h-657v-1438z" />
<glyph unicode="o" d="M-55 68v1259l55 199h782l359 -363v-1251l-56 -199h-780zM88 303l307 -303h658v1128l-308 310h-657v-1135zM494 350v737h151v-737h-151z" />
<glyph unicode="p" d="M-55 -287v1614l55 199h776l365 -293l-2 -1038l-56 -199l-501 2v-86l-56 -199h-581zM88 0h406v285h557l2 905l-308 248h-657v-1438zM494 530v557h151v-557h-151z" />
<glyph unicode="q" d="M-55 68v1259l55 199h782l359 -363l2 -1437l-56 -199h-585v186h-197zM88 303l307 -303h250v-186h406q2 69 2 1314l-308 310h-657v-1135zM494 350v737h151v-737h-151z" />
<glyph unicode="r" d="M-55 -287v1614l55 199h776l365 -293l-2 -610l-33 -68l33 -33v-796l-56 -199h-581v186h-557zM88 0h406v588l151 -154v-620h406v671l-224 224l224 2l2 479l-308 248h-657v-1438zM494 858v229h151v-229h-151z" />
<glyph unicode="s" d="M-55 213l55 109h-55l2 587l401 617h793v-527l-21 -53h19v-747l-56 -199l-256 -287h-882v500zM88 0h756l207 231v627h-568v229h570v351h-658l-307 -473v-357h610v-284h-610v-324z" />
<glyph unicode="t" d="M-55 248v1079l55 199h582v-176h557v-1438l-56 -199h-790zM88 473l307 -473h656l2 858h-408v-508h-151v662h557v250h-557v176h-406v-965z" />
<glyph unicode="u" d="M-55 68v1259l55 199h1141v-1614l-56 -199h-780zM88 303l307 -303h658v1438h-408v-1088h-151v1088h-406v-1135z" />
<glyph unicode="v" d="M-55 -287v1614l55 199h1141v-1260l-56 -198l-358 -355h-782zM88 0h657l308 303v1135h-406v-1088h-151v1088h-408v-1438z" />
<glyph unicode="w" horiz-adv-x="1667" d="M-55 16v1311l55 199h1700v-1614l-55 -199h-781l-307 303h-612zM88 303h559l307 -303h658v1438h-408v-1088h-151v1088h-406v-785h-151v785h-408v-1135z" />
<glyph unicode="x" d="M-55 -287v862l35 68l-35 33v651l55 199h1141v-1006l-35 -61l35 -39v-508l-56 -199h-1140zM88 0h408v436h151v-436h406v383l-230 225h230v830h-408v-580h-151v580h-406v-527l229 -225h-229v-686z" />
<glyph unicode="y" d="M-55 676v651l55 199h1141v-1006l-56 -198h-198v-410l-56 -199h-579v662zM88 911l307 -301v-610h404v608h254v830h-408v-580h-151v580h-406v-527z" />
<glyph unicode="z" d="M-55 801v526l55 199h795l346 -535v-471l-56 -108h56v-500l-56 -199h-882l-256 287v748l37 53h-39zM88 1087h571v-229h-569v-627l209 -231h754v324h-609v284h609v357l-308 473h-657v-351z" />
<glyph unicode="{" horiz-adv-x="700" d="M-53 -287v1198l401 615h385v-527l-55 -198h-96v-402h151l2 -487l-55 -199h-733zM88 0h557v311h-151v776h151v351h-250l-307 -473v-965z" />
<glyph unicode="|" horiz-adv-x="548" d="M-55 -492v2024l55 199h582v-2024l-56 -199h-581zM88 -205h406v1847h-406v-1847z" />
<glyph unicode="}" horiz-adv-x="700" d="M-55 -287l2 488l55 198h96v402h-153v526l55 199h387l346 -535v-1079l-55 -199h-733zM88 0h557v965l-305 473h-252v-351h154v-776h-152z" />
<glyph unicode="~" horiz-adv-x="548" d="M-55 201l55 198h582v-487l-56 -199h-581v488zM-55 461v487l55 199h582v-488l-56 -198h-581zM88 0h406v311h-406v-311zM88 748h406v311h-406v-311z" />
<glyph unicode="&#xa1;" horiz-adv-x="548" d="M-55 -287v1614l55 199h582v-1614l-56 -199h-581zM88 0h406v973h-406v-973zM88 1126h406v312h-406v-312z" />
<glyph unicode="&#xa2;" horiz-adv-x="548" d="M-55 201l55 198h582v-487l-56 -199h-581v488zM-55 461v866l55 199h582v-867l-56 -198h-581zM88 0h406v311h-406v-311zM88 748h406v311h-406v-311zM88 1126h406v312h-406v-312z" />
<glyph unicode="&#xa3;" horiz-adv-x="548" d="M-55 92v1235l55 199h582v-1235l-56 -199h-581zM88 379h406v311h-406v-311zM88 748h406v311h-406v-311zM88 1126h406v312h-406v-312z" />
<glyph unicode="&#xa4;" horiz-adv-x="548" d="M-55 201l55 198h582v-487l-56 -199h-581v488zM-55 840v487l55 199h582v-488l-56 -198h-581zM88 0h406v311h-406v-311zM88 1126h406v312h-406v-312z" />
<glyph unicode="&#xa5;" horiz-adv-x="548" d="M-55 -287v1235l55 199h582v-1235l-56 -199h-581zM88 0h406v311h-406v-311zM88 369h406v311h-406v-311zM88 748h406v311h-406v-311z" />
<glyph unicode="&#xa7;" horiz-adv-x="548" d="M-55 -287v1235l55 199h582v-1235l-56 -199h-581zM88 0h406v311h-406v-311zM88 369h406v311h-406v-311zM88 748h406v311h-406v-311z" />
<glyph unicode="&#xa8;" horiz-adv-x="548" d="M-55 92v488l55 198h582v-487l-56 -199h-581zM-55 840v487l55 199h582v-488l-56 -198h-581zM88 379h406v311h-406v-311zM88 1126h406v312h-406v-312z" />
<glyph unicode="&#xa9;" horiz-adv-x="1437" d="M-53 -287v1116l475 697h1046v-1170l-55 -198l-442 -445h-1024zM88 0h901l391 393v1045h-911l-381 -557v-881zM274 203v616l297 428h619v-721l-326 -323h-590zM340 330h524l246 243v117h-326v-110h-120v276h120v-88h326v369h-524l-246 -379v-428z" />
<glyph unicode="&#xaa;" horiz-adv-x="548" d="M-55 201l55 198h582v-487l-56 -199h-581v488zM-55 461v866l55 199h582v-867l-56 -198h-581zM88 0h406v311h-406v-311zM88 748h406v311h-406v-311zM88 1126h406v312h-406v-312z" />
<glyph unicode="&#xab;" horiz-adv-x="548" d="M-55 -287v867l55 198h582v-866l-56 -199h-581zM-55 840v487l55 199h582v-488l-56 -198h-581zM88 0h406v311h-406v-311zM88 379h406v311h-406v-311zM88 1126h406v312h-406v-312z" />
<glyph unicode="&#xac;" horiz-adv-x="548" d="M-55 201l55 198h582v-487l-56 -199h-581v488zM-55 840v487l55 199h582v-488l-56 -198h-581zM88 0h406v311h-406v-311zM88 1126h406v312h-406v-312z" />
<glyph unicode="&#xad;" horiz-adv-x="548" d="M-55 322v487l55 199h582v-488l-56 -198h-581zM88 608h406v312h-406v-312z" />
<glyph unicode="&#xae;" horiz-adv-x="1622" d="M-55 158v1169l55 199h1081l572 -457v-1157l-56 -199h-1208zM88 393l391 -393h1086v1028l-514 410h-963v-1045zM279 526v721h739l360 -280v-764h-772zM340 565l289 -284h116v198l152 -153v-45h406v96l-224 223l224 2l2 316l-308 247h-657v-600zM745 750v65h152v-65h-152z " />
<glyph unicode="&#xaf;" horiz-adv-x="548" d="M-55 92v1235l55 199h582v-1235l-56 -199h-581zM88 379h406v311h-406v-311zM88 748h406v311h-406v-311zM88 1126h406v312h-406v-312z" />
<glyph unicode="&#xb0;" horiz-adv-x="548" d="M-55 -287v867l55 198h582v-866l-56 -199h-581zM-55 840v487l55 199h582v-488l-56 -198h-581zM88 0h406v311h-406v-311zM88 379h406v311h-406v-311zM88 1126h406v312h-406v-312z" />
<glyph unicode="&#xb1;" horiz-adv-x="548" d="M-55 -287v867l55 198h582v-866l-56 -199h-581zM-55 840v487l55 199h582v-488l-56 -198h-581zM88 0h406v311h-406v-311zM88 379h406v311h-406v-311zM88 1126h406v312h-406v-312z" />
<glyph unicode="&#xb4;" horiz-adv-x="548" d="M-55 -287v867l55 198h582v-866l-56 -199h-581zM88 0h406v311h-406v-311zM88 379h406v311h-406v-311z" />
<glyph unicode="&#xb6;" horiz-adv-x="548" d="M-55 201l55 198h582v-487l-56 -199h-581v488zM-55 461v487l55 199h582v-488l-56 -198h-581zM88 0h406v311h-406v-311zM88 748h406v311h-406v-311z" />
<glyph unicode="&#xb7;" horiz-adv-x="548" d="M-55 201l55 198h582v-487l-56 -199h-581v488zM88 0h406v311h-406v-311z" />
<glyph unicode="&#xb8;" horiz-adv-x="548" d="M-55 92v488l55 198h582v-487l-56 -199h-581zM-55 840v487l55 199h582v-488l-56 -198h-581zM88 379h406v311h-406v-311zM88 1126h406v312h-406v-312z" />
<glyph unicode="&#xba;" horiz-adv-x="548" d="M-55 92v1235l55 199h582v-1235l-56 -199h-581zM88 379h406v311h-406v-311zM88 748h406v311h-406v-311zM88 1126h406v312h-406v-312z" />
<glyph unicode="&#xbb;" horiz-adv-x="548" d="M-55 201l55 198h582v-487l-56 -199h-581v488zM-55 461v866l55 199h582v-867l-56 -198h-581zM88 0h406v311h-406v-311zM88 748h406v311h-406v-311zM88 1126h406v312h-406v-312z" />
<glyph unicode="&#xbf;" d="M-55 248v635l55 198h504v246l55 199h582v-1614l-56 -199h-792zM88 473l307 -473h658v584h-408v-234h-151v330h557l2 313h-965v-520zM647 1126h406v312h-406v-312z" />
<glyph unicode="&#xc0;" d="M-55 -287l2 1196l401 617h793v-1614l-56 -199h-1140zM88 0h406v608h153v-608h406v1438h-658l-307 -473v-965zM494 858l153 295v-295h-153z" />
<glyph unicode="&#xc1;" d="M-55 -287l2 1196l401 617h793v-1614l-56 -199h-1140zM88 0h406v608h153v-608h406v1438h-658l-307 -473v-965zM494 858l153 295v-295h-153z" />
<glyph unicode="&#xc2;" d="M-55 -287l2 1196l401 617h793v-1614l-56 -199h-1140zM88 0h406v608h153v-608h406v1438h-658l-307 -473v-965zM494 858l153 295v-295h-153z" />
<glyph unicode="&#xc3;" d="M-55 -287l2 1196l401 617h793v-1614l-56 -199h-1140zM88 0h406v608h153v-608h406v1438h-658l-307 -473v-965zM494 858l153 295v-295h-153z" />
<glyph unicode="&#xc4;" d="M-55 -287l2 1196l401 617h793v-1614l-56 -199h-1140zM88 0h406v608h153v-608h406v1438h-658l-307 -473v-965zM494 858l153 295v-295h-153z" />
<glyph unicode="&#xc5;" d="M-55 -287l2 1196l401 617h793v-1614l-56 -199h-1140zM88 0h406v608h153v-608h406v1438h-658l-307 -473v-965zM494 858l153 295v-295h-153z" />
<glyph unicode="&#xc6;" horiz-adv-x="1665" d="M-53 -287v1194l401 619h1350v-527l-56 -198h-286v-281l-56 -82h398v-526l-56 -199h-1695zM88 0h406v608h153v-608h963v350h-557v258h215v250h-215v229h557v351h-1215l-307 -473v-965zM494 858l153 295v-295h-153z" />
<glyph unicode="&#xc7;" d="M-55 -287l2 1196l401 617h793v-1260l-56 -198l-358 -355h-782zM88 0h657l308 303l-2 248h-406v-240h-151v776h151v-438h408v789h-658l-307 -473v-965z" />
<glyph unicode="&#xc8;" d="M-55 -287v1614l55 199h1139v-527l-56 -198h-286v-281l-56 -82h398v-526l-56 -199h-1138zM88 0h963v350h-557v258h215v250h-215v229h557v351h-963v-1438z" />
<glyph unicode="&#xc9;" d="M-55 -287v1614l55 199h1139v-527l-56 -198h-286v-281l-56 -82h398v-526l-56 -199h-1138zM88 0h963v350h-557v258h215v250h-215v229h557v351h-963v-1438z" />
<glyph unicode="&#xca;" d="M-55 -287v1614l55 199h1139v-527l-56 -198h-286v-281l-56 -82h398v-526l-56 -199h-1138zM88 0h963v350h-557v258h215v250h-215v229h557v351h-963v-1438z" />
<glyph unicode="&#xcb;" d="M-55 -287v1614l55 199h1139v-527l-56 -198h-286v-281l-56 -82h398v-526l-56 -199h-1138zM88 0h963v350h-557v258h215v250h-215v229h557v351h-963v-1438z" />
<glyph unicode="&#xcc;" horiz-adv-x="548" d="M-55 -287v1614l55 199h582v-1614l-56 -199h-581zM88 0h406v1438h-406v-1438z" />
<glyph unicode="&#xcd;" horiz-adv-x="548" d="M-55 -287v1614l55 199h582v-1614l-56 -199h-581zM88 0h406v1438h-406v-1438z" />
<glyph unicode="&#xce;" horiz-adv-x="548" d="M-55 -287v1614l55 199h582v-1614l-56 -199h-581zM88 0h406v1438h-406v-1438z" />
<glyph unicode="&#xcf;" horiz-adv-x="548" d="M-55 -287v1614l55 199h582v-1614l-56 -199h-581zM88 0h406v1438h-406v-1438z" />
<glyph unicode="&#xd0;" d="M-55 -287v1614l55 199h795l346 -535v-725l-56 -198l-358 -355h-782zM88 0h657l308 303v662l-308 473h-657v-1438zM496 350v737h151v-737h-151z" />
<glyph unicode="&#xd1;" d="M-55 -287l2 1403l413 410h781v-1614l-56 -199h-1140zM88 0h406v1087h151v-1087h408v1438h-658l-307 -303v-1135z" />
<glyph unicode="&#xd2;" d="M-55 -287l2 1397l411 416h783v-1260l-56 -198l-358 -355h-782zM88 0h657l308 303v1135h-658l-307 -310v-1128zM496 350v737h151v-737h-151z" />
<glyph unicode="&#xd3;" d="M-55 -287l2 1397l411 416h783v-1260l-56 -198l-358 -355h-782zM88 0h657l308 303v1135h-658l-307 -310v-1128zM496 350v737h151v-737h-151z" />
<glyph unicode="&#xd4;" d="M-55 -287l2 1397l411 416h783v-1260l-56 -198l-358 -355h-782zM88 0h657l308 303v1135h-658l-307 -310v-1128zM496 350v737h151v-737h-151z" />
<glyph unicode="&#xd5;" d="M-55 -287l2 1397l411 416h783v-1260l-56 -198l-358 -355h-782zM88 0h657l308 303v1135h-658l-307 -310v-1128zM496 350v737h151v-737h-151z" />
<glyph unicode="&#xd6;" d="M-55 -287l2 1397l411 416h783v-1260l-56 -198l-358 -355h-782zM88 0h657l308 303v1135h-658l-307 -310v-1128zM496 350v737h151v-737h-151z" />
<glyph unicode="&#xd8;" d="M-55 -287l2 1397l411 416h783v-1260l-56 -198l-358 -355h-782zM88 0h657l308 303v1135h-658l-307 -310v-1128zM496 350v737h151v-737h-151z" />
<glyph unicode="&#xd9;" d="M-55 68v1259l55 199h1141v-1614l-56 -199h-780zM88 303l307 -303h658v1438h-408v-1088h-151v1088h-406v-1135z" />
<glyph unicode="&#xda;" d="M-55 68v1259l55 199h1141v-1614l-56 -199h-780zM88 303l307 -303h658v1438h-408v-1088h-151v1088h-406v-1135z" />
<glyph unicode="&#xdb;" d="M-55 68v1259l55 199h1141v-1614l-56 -199h-780zM88 303l307 -303h658v1438h-408v-1088h-151v1088h-406v-1135z" />
<glyph unicode="&#xdc;" d="M-55 68v1259l55 199h1141v-1614l-56 -199h-780zM88 303l307 -303h658v1438h-408v-1088h-151v1088h-406v-1135z" />
<glyph unicode="&#xdd;" d="M-55 322v1005l55 199h1141v-652l-56 -198l-249 -246v-518l-56 -199h-581v609h-254zM88 608h254v-608h406v610l305 301v527h-406v-480h-151v480h-408v-830z" />
<glyph unicode="&#xde;" horiz-adv-x="548" d="M-55 -287v1614l55 199h582v-1614l-56 -199h-581zM88 0h406v311h-406v-311zM88 379h406v311h-406v-311zM88 748h406v311h-406v-311zM88 1126h406v312h-406v-312z" />
<glyph unicode="&#xdf;" horiz-adv-x="548" d="M-55 92v488l55 198h582v-487l-56 -199h-581zM-55 840v487l55 199h582v-488l-56 -198h-581zM88 379h406v311h-406v-311zM88 1126h406v312h-406v-312z" />
<glyph unicode="&#xe0;" d="M-55 -287v1614l55 199h795l346 -535v-1079l-56 -199h-1140zM88 0h406v608h153v-608h406v965l-308 473h-657v-1438zM494 858v295l153 -295h-153z" />
<glyph unicode="&#xe1;" d="M-55 -287v1614l55 199h795l346 -535v-1079l-56 -199h-1140zM88 0h406v608h153v-608h406v965l-308 473h-657v-1438zM494 858v295l153 -295h-153z" />
<glyph unicode="&#xe2;" d="M-55 -287v1614l55 199h795l346 -535v-1079l-56 -199h-1140zM88 0h406v608h153v-608h406v965l-308 473h-657v-1438zM494 858v295l153 -295h-153z" />
<glyph unicode="&#xe3;" d="M-55 -287v1614l55 199h795l346 -535v-1079l-56 -199h-1140zM88 0h406v608h153v-608h406v965l-308 473h-657v-1438zM494 858v295l153 -295h-153z" />
<glyph unicode="&#xe4;" d="M-55 -287v1614l55 199h795l346 -535v-1079l-56 -199h-1140zM88 0h406v608h153v-608h406v965l-308 473h-657v-1438zM494 858v295l153 -295h-153z" />
<glyph unicode="&#xe5;" d="M-55 -287v1614l55 199h795l346 -535v-1079l-56 -199h-1140zM88 0h406v608h153v-608h406v965l-308 473h-657v-1438zM494 858v295l153 -295h-153z" />
<glyph unicode="&#xe6;" horiz-adv-x="1665" d="M-53 -287v1194l401 619h1350v-527l-56 -198h-286v-281l-56 -82h398v-526l-56 -199h-1695zM88 0h406v608h153v-608h963v350h-557v258h215v250h-215v229h557v351h-1215l-307 -473v-965zM494 858l153 295v-295h-153z" />
<glyph unicode="&#xe7;" d="M-55 -287l2 1194l401 619h793v-1260l-56 -198l-358 -355h-782zM88 0h657l308 303l-2 453h-406v-445h-151v776h151v-233h408v584h-658l-307 -473v-965z" />
<glyph unicode="&#xe8;" d="M-55 -287v1614l55 199h1139v-527l-56 -198h-286v-281l-56 -82h398v-526l-56 -199h-1138zM88 0h963v350h-557v258h215v250h-215v229h557v351h-963v-1438z" />
<glyph unicode="&#xe9;" d="M-55 -287v1614l55 199h1139v-527l-56 -198h-286v-281l-56 -82h398v-526l-56 -199h-1138zM88 0h963v350h-557v258h215v250h-215v229h557v351h-963v-1438z" />
<glyph unicode="&#xea;" d="M-55 -287v1614l55 199h1139v-527l-56 -198h-286v-281l-56 -82h398v-526l-56 -199h-1138zM88 0h963v350h-557v258h215v250h-215v229h557v351h-963v-1438z" />
<glyph unicode="&#xeb;" d="M-55 -287v1614l55 199h1139v-527l-56 -198h-286v-281l-56 -82h398v-526l-56 -199h-1138zM88 0h963v350h-557v258h215v250h-215v229h557v351h-963v-1438z" />
<glyph unicode="&#xec;" horiz-adv-x="548" d="M-55 -287v1614l55 199h582v-1614l-56 -199h-581zM88 0h406v1438h-406v-1438z" />
<glyph unicode="&#xed;" horiz-adv-x="548" d="M-55 -287v1614l55 199h582v-1614l-56 -199h-581zM88 0h406v1438h-406v-1438z" />
<glyph unicode="&#xee;" horiz-adv-x="548" d="M-55 -287v1614l55 199h582v-1614l-56 -199h-581zM88 0h406v1438h-406v-1438z" />
<glyph unicode="&#xef;" horiz-adv-x="548" d="M-55 -287v1614l55 199h582v-1614l-56 -199h-581zM88 0h406v1438h-406v-1438z" />
<glyph unicode="&#xf0;" d="M-55 -287v1614l55 199h795l346 -535v-725l-56 -198l-358 -355h-782zM88 0h657l308 303v662l-308 473h-657v-1438zM496 350v737h151v-737h-151z" />
<glyph unicode="&#xf1;" d="M-55 -287v1614l55 199h782l359 -355v-1259l-56 -199h-1140zM88 0h408v1087h151v-1087h406v1135l-308 303h-657v-1438z" />
<glyph unicode="&#xf2;" d="M-55 68v1259l55 199h782l359 -363v-1251l-56 -199h-780zM88 303l307 -303h658v1128l-308 310h-657v-1135zM494 350v737h151v-737h-151z" />
<glyph unicode="&#xf3;" d="M-55 68v1259l55 199h782l359 -363v-1251l-56 -199h-780zM88 303l307 -303h658v1128l-308 310h-657v-1135zM494 350v737h151v-737h-151z" />
<glyph unicode="&#xf4;" d="M-55 68v1259l55 199h782l359 -363v-1251l-56 -199h-780zM88 303l307 -303h658v1128l-308 310h-657v-1135zM494 350v737h151v-737h-151z" />
<glyph unicode="&#xf5;" d="M-55 68v1259l55 199h782l359 -363v-1251l-56 -199h-780zM88 303l307 -303h658v1128l-308 310h-657v-1135zM494 350v737h151v-737h-151z" />
<glyph unicode="&#xf6;" d="M-55 68v1259l55 199h782l359 -363v-1251l-56 -199h-780zM88 303l307 -303h658v1128l-308 310h-657v-1135zM494 350v737h151v-737h-151z" />
<glyph unicode="&#xf7;" horiz-adv-x="548" d="M-55 92v1235l55 199h582v-1235l-56 -199h-581zM88 379h406v311h-406v-311zM88 748h406v311h-406v-311zM88 1126h406v312h-406v-312z" />
<glyph unicode="&#xf8;" d="M-55 68v1259l55 199h782l359 -363v-1251l-56 -199h-780zM88 303l307 -303h658v1128l-308 310h-657v-1135zM494 350v737h151v-737h-151z" />
<glyph unicode="&#xf9;" d="M-55 68v1259l55 199h1141v-1614l-56 -199h-780zM88 303l307 -303h658v1438h-408v-1088h-151v1088h-406v-1135z" />
<glyph unicode="&#xfa;" d="M-55 68v1259l55 199h1141v-1614l-56 -199h-780zM88 303l307 -303h658v1438h-408v-1088h-151v1088h-406v-1135z" />
<glyph unicode="&#xfb;" d="M-55 68v1259l55 199h1141v-1614l-56 -199h-780zM88 303l307 -303h658v1438h-408v-1088h-151v1088h-406v-1135z" />
<glyph unicode="&#xfc;" d="M-55 68v1259l55 199h1141v-1614l-56 -199h-780zM88 303l307 -303h658v1438h-408v-1088h-151v1088h-406v-1135z" />
<glyph unicode="&#xfe;" horiz-adv-x="548" d="M-55 -287v867l55 198h582v-866l-56 -199h-581zM-55 840v487l55 199h582v-488l-56 -198h-581zM88 0h406v311h-406v-311zM88 379h406v311h-406v-311zM88 1126h406v312h-406v-312z" />
<glyph unicode="&#xff;" d="M-55 676v651l55 199h1141v-1006l-56 -198h-198v-410l-56 -199h-579v662zM88 911l307 -301v-610h404v608h254v830h-408v-580h-151v580h-406v-527z" />
<glyph unicode="&#x152;" horiz-adv-x="1662" d="M-53 -287v1397l411 416h1338v-527l-56 -198h-286v-281l-56 -82h398v-526l-56 -199h-1693zM88 0h1520v350h-555v258h213v250h-213v229h555v351h-1213l-307 -310v-1128zM496 350v737h151v-737h-151z" />
<glyph unicode="&#x153;" horiz-adv-x="1662" d="M-53 -287v1397l411 416h1338v-527l-56 -198h-286v-281l-56 -82h398v-526l-56 -199h-1693zM88 0h1520v350h-555v258h213v250h-213v229h555v351h-1213l-307 -310v-1128zM496 350v737h151v-737h-151z" />
<glyph unicode="&#x178;" d="M-55 322v1005l55 199h1141v-652l-56 -198l-249 -246v-518l-56 -199h-581v609h-254zM88 608h254v-608h406v610l305 301v527h-406v-480h-151v480h-408v-830z" />
<glyph unicode="&#x2c6;" horiz-adv-x="548" d="M-55 -287v867l55 198h582v-866l-56 -199h-581zM-55 840v487l55 199h582v-488l-56 -198h-581zM88 0h406v311h-406v-311zM88 379h406v311h-406v-311zM88 1126h406v312h-406v-312z" />
<glyph unicode="&#x2dc;" horiz-adv-x="548" d="M-55 201l55 198h582v-487l-56 -199h-581v488zM-55 461v866l55 199h582v-867l-56 -198h-581zM88 0h406v311h-406v-311zM88 748h406v311h-406v-311zM88 1126h406v312h-406v-312z" />
<glyph unicode="&#x2000;" horiz-adv-x="865" />
<glyph unicode="&#x2001;" horiz-adv-x="1731" />
<glyph unicode="&#x2002;" horiz-adv-x="865" />
<glyph unicode="&#x2003;" horiz-adv-x="1731" />
<glyph unicode="&#x2004;" horiz-adv-x="577" />
<glyph unicode="&#x2005;" horiz-adv-x="432" />
<glyph unicode="&#x2006;" horiz-adv-x="288" />
<glyph unicode="&#x2007;" horiz-adv-x="288" />
<glyph unicode="&#x2008;" horiz-adv-x="216" />
<glyph unicode="&#x2009;" horiz-adv-x="346" />
<glyph unicode="&#x200a;" horiz-adv-x="96" />
<glyph unicode="&#x2010;" horiz-adv-x="548" d="M-55 322v487l55 199h582v-488l-56 -198h-581zM88 608h406v312h-406v-312z" />
<glyph unicode="&#x2011;" horiz-adv-x="548" d="M-55 322v487l55 199h582v-488l-56 -198h-581zM88 608h406v312h-406v-312z" />
<glyph unicode="&#x2012;" horiz-adv-x="548" d="M-55 322v487l55 199h582v-488l-56 -198h-581zM88 608h406v312h-406v-312z" />
<glyph unicode="&#x2013;" horiz-adv-x="548" d="M88 608v312h406v-312h-406z" />
<glyph unicode="&#x2014;" horiz-adv-x="956" d="M88 608v312h815v-312h-815z" />
<glyph unicode="&#x2018;" horiz-adv-x="548" d="M-55 303v1024l55 199h582v-436l-56 -199zM88 717l406 409v312h-406v-721z" />
<glyph unicode="&#x2019;" horiz-adv-x="548" d="M-55 303v1024l55 199h582v-436l-56 -199zM88 717l406 409v312h-406v-721z" />
<glyph unicode="&#x201a;" horiz-adv-x="548" d="M-55 201l55 198h582v-436l-56 -199l-581 -587v1024zM88 311v-721l406 410v311h-406z" />
<glyph unicode="&#x201c;" d="M-55 840v487l55 199h1139v-488l-56 -198h-1138zM88 1126h406v312h-406v-312zM645 1126h406v312h-406v-312z" />
<glyph unicode="&#x201d;" d="M-55 840v487l55 199h1139v-488l-56 -198h-1138zM88 1126h406v312h-406v-312zM645 1126h406v312h-406v-312z" />
<glyph unicode="&#x201e;" horiz-adv-x="548" d="M-55 201l55 198h582v-436l-56 -199l-581 -587v1024zM88 311v-721l406 410v311h-406z" />
<glyph unicode="&#x2022;" horiz-adv-x="548" d="M-55 201l55 198h582v-487l-56 -199h-581v488zM-55 840v487l55 199h582v-488l-56 -198h-581zM88 0h406v311h-406v-311zM88 1126h406v312h-406v-312z" />
<glyph unicode="&#x2026;" horiz-adv-x="1775" d="M-55 201l55 198h582v-487l-56 -199h-581v488zM88 0h406v311h-406v-311zM559 201l55 198h582v-487l-56 -199h-581v488zM702 0h406v311h-406v-311zM1174 201l55 198h582v-487l-56 -199h-581v488zM1317 0h406v311h-406v-311z" />
<glyph unicode="&#x202f;" horiz-adv-x="346" />
<glyph unicode="&#x2039;" horiz-adv-x="548" d="M-55 201l55 198h582v-487l-56 -199h-581v488zM-55 461v487l55 199h582v-488l-56 -198h-581zM88 0h406v311h-406v-311zM88 748h406v311h-406v-311z" />
<glyph unicode="&#x203a;" horiz-adv-x="548" d="M-55 92v488l55 198h582v-487l-56 -199h-581zM-55 840v487l55 199h582v-488l-56 -198h-581zM88 379h406v311h-406v-311zM88 1126h406v312h-406v-312z" />
<glyph unicode="&#x205f;" horiz-adv-x="432" />
<glyph unicode="&#x2122;" horiz-adv-x="1759" d="M-55 870v457l55 199h436v-113h357v-82h258l196 195h543v-821l-55 -199h-1553zM88 1096l197 -303h420v286h-259v-63h-98v149h357v160h-357v113h-260v-342zM727 793h262v239h96v-239h261v421h96v-421h260v645h-420l-197 -195h-358v-450z" />
<glyph unicode="&#x25fc;" horiz-adv-x="1525" d="M0 0v1526h1526v-1526h-1526z" />
</font>
</defs>
</svg>
